<?xml version="1.0" encoding="utf-8"?>
<!-- Generator: Adobe Illustrator 16.0.4, SVG Export Plug-In . SVG Version: 6.00 Build 0)  -->
<!DOCTYPE svg PUBLIC "-//W3C//DTD SVG 1.1//EN" "http://www.w3.org/Graphics/SVG/1.1/DTD/svg11.dtd">
<svg style="color: #cd7f32;" version="1.1" id="Layer_1" xmlns="http://www.w3.org/2000/svg" xmlns:xlink="http://www.w3.org/1999/xlink" x="0px" y="0px"
	 width="200px" height="200px" viewBox="0 0 200 200" enable-background="new 0 0 200 200" xml:space="preserve">
<g>
	<g>
		<polygon points="87.26,93.336 93.197,93.336 93.197,48.807 87.26,79.236 		"/>
		<path d="M100,12.301c-48.435,0-87.698,39.264-87.698,87.699S51.565,187.699,100,187.699c48.436,0,87.7-39.266,87.7-87.699
			C187.699,51.564,148.436,12.301,100,12.301z M104.713,113.623l-7.063,57.889l-4.17-57.889h-0.483l0.199-15.584h-6.432
			l-9.648,15.088l-0.054,0.496h-7.614l13.854-18.306l4.206-46.017L76.13,40.149l0.247-0.496h44.035l-10.887,10.142l4.701,44.779
			l15.336,19.049H104.713z"/>
	</g>
</g>
</svg>
